<?xml version="1.0" standalone="no"?>
<!DOCTYPE svg PUBLIC "-//W3C//DTD SVG 20010904//EN"
 "http://www.w3.org/TR/2001/REC-SVG-20010904/DTD/svg10.dtd">
<svg version="1.0" xmlns="http://www.w3.org/2000/svg"
 width="1280.000000pt" height="640.000000pt" viewBox="0 0 1280.000000 640.000000"
 preserveAspectRatio="xMidYMid meet">
<metadata>
Created by potrace 1.15, written by Peter Selinger 2001-2017
</metadata>
<g transform="translate(0.000000,640.000000) scale(0.100000,-0.100000)"
fill="#000000" stroke="none">
<path d="M3377 6035 c-54 -8 -113 -19 -132 -25 -46 -15 -77 -67 -77 -129 0
-95 74 -183 283 -338 74 -55 153 -120 176 -145 51 -57 135 -226 164 -332 11
-44 24 -127 28 -186 6 -91 11 -114 35 -154 56 -96 59 -309 6 -511 -81 -307
-253 -704 -461 -1060 -94 -162 -125 -206 -264 -370 -182 -216 -244 -310 -295
-447 -42 -115 -78 -85 -131 111 -57 213 -147 420 -246 570 -102 154 -261 299
-403 371 -25 12 -61 37 -80 54 -19 17 -116 94 -215 171 -198 152 -337 286
-403 384 -23 35 -42 67 -42 73 0 5 18 25 39 46 28 26 47 59 67 112 24 65 28
90 28 190 1 151 -9 169 -160 290 -155 123 -274 256 -436 483 -42 58 -50 66
-70 58 -46 -17 -45 -35 7 -118 156 -252 175 -286 175 -324 0 -49 -40 -83 -113
-99 -53 -11 -55 -10 -143 34 -108 54 -176 75 -270 83 -174 14 -352 -81 -417
-225 -26 -58 -30 -172 -7 -216 8 -16 33 -39 55 -50 36 -19 57 -21 214 -21
l173 0 25 -30 c51 -64 121 -175 138 -222 29 -77 112 -194 282 -398 193 -231
229 -282 328 -455 43 -74 123 -207 178 -295 398 -633 400 -636 593 -1060 89
-196 135 -274 201 -345 116 -126 219 -160 678 -225 229 -32 341 -52 705 -125
430 -86 495 -94 770 -94 187 0 266 4 390 21 257 36 265 36 375 14 55 -11 199
-32 320 -46 226 -26 404 -56 457 -78 25 -10 31 -19 34 -52 4 -50 29 -83 85
-115 42 -23 56 -25 329 -37 157 -7 431 -15 610 -19 356 -7 450 0 965 67 127
16 298 33 381 36 l151 6 70 -65 c57 -52 87 -71 157 -97 47 -19 86 -37 86 -40
0 -13 -33 -53 -81 -98 -56 -52 -60 -73 -23 -110 24 -24 30 -25 96 -21 63 5 75
3 106 -18 71 -48 142 -32 413 95 108 50 200 91 204 91 26 0 -42 -49 -115 -82
-47 -22 -93 -47 -103 -55 -25 -23 -21 -60 11 -89 38 -36 79 -29 235 40 145 64
196 77 281 76 34 -1 87 4 118 10 43 9 87 10 180 2 137 -12 185 -6 284 33 219
88 449 95 893 29 595 -89 906 -83 1271 26 224 67 291 156 240 322 -56 184
-170 331 -380 486 -249 184 -469 387 -759 698 -119 127 -265 295 -325 375
-200 263 -301 377 -411 460 -48 36 -308 185 -434 249 -39 19 -100 67 -173 137
-62 60 -148 140 -190 178 l-78 70 11 75 c13 91 55 222 111 342 37 80 47 93
104 133 71 51 119 111 167 213 36 74 52 133 112 406 23 109 41 166 54 180 36
38 53 97 61 215 5 64 13 128 19 143 19 51 -22 147 -119 277 -60 78 -78 97 -66
66 7 -20 -8 -19 -25 1 -7 9 -42 29 -77 46 -44 21 -70 41 -87 66 -12 21 -54 67
-92 104 -77 76 -220 153 -301 163 -26 3 -81 13 -123 22 -109 23 -302 14 -424
-20 -96 -27 -361 -124 -417 -153 -53 -28 -88 -56 -109 -91 -11 -18 -49 -67
-83 -108 -47 -57 -75 -104 -116 -198 -69 -157 -73 -201 -31 -288 16 -35 44
-117 60 -183 17 -65 42 -143 57 -174 35 -73 45 -154 38 -287 -4 -77 -1 -145
11 -225 9 -63 19 -146 22 -184 l6 -69 -29 7 c-69 18 -277 55 -367 67 -119 14
-378 6 -457 -14 -109 -28 -193 -58 -242 -84 -61 -33 -134 -113 -195 -213 -25
-41 -66 -104 -92 -140 -83 -114 -141 -217 -311 -550 -149 -293 -280 -520 -299
-520 -4 0 -70 39 -147 86 -287 177 -375 221 -540 270 -75 22 -112 27 -229 29
-129 2 -149 5 -255 39 -405 128 -745 59 -1197 -244 -161 -109 -183 -120 -228
-120 -39 0 -42 7 -19 53 56 108 102 299 139 577 14 107 32 240 41 295 31 208
97 404 176 525 31 49 43 58 104 83 207 83 327 231 327 402 0 86 -19 138 -102
278 -100 169 -128 261 -186 612 -22 129 -41 215 -50 224 -13 13 -19 13 -50 -2
-21 -10 -35 -24 -35 -35 0 -10 11 -106 25 -212 14 -106 24 -197 22 -203 -10
-32 -94 121 -152 278 -66 179 -102 244 -174 315 -100 99 -238 164 -417 195
-106 18 -340 18 -477 0z m6929 -3879 c96 -30 261 -155 638 -485 200 -175 351
-301 433 -361 18 -13 32 -25 30 -26 -1 -2 -90 -25 -197 -53 -107 -27 -283 -72
-390 -100 -492 -127 -620 -137 -810 -63 -282 109 -389 156 -397 178 -3 8 4 36
15 62 27 65 39 121 62 307 12 88 30 190 40 226 38 128 139 246 263 309 60 31
65 32 162 26 55 -3 123 -12 151 -20z"/>
</g>
</svg>
